<mxfile host="app.diagrams.net" modified="2023-09-24T22:34:09.595Z" agent="Mozilla/5.0 (Windows NT 10.0; Win64; x64; rv:109.0) Gecko/20100101 Firefox/117.0" etag="EBJxCvthhFAUWT-nuBTc" version="21.7.1" type="github">
  <diagram name="Sivu-1" id="u8w1255cLJUokRJfRU84">
    <mxGraphModel dx="2778" dy="2220" grid="1" gridSize="5" guides="1" tooltips="1" connect="1" arrows="1" fold="1" page="1" pageScale="1" pageWidth="827" pageHeight="1169" math="1" shadow="0">
      <root>
        <mxCell id="0" />
        <mxCell id="1" parent="0" />
        <mxCell id="8-c3kvB9OXs8t6of_QWn-6" value="" style="rounded=0;whiteSpace=wrap;html=1;fillColor=#F7F7F7;strokeColor=default;dashed=1;dashPattern=1 1;strokeWidth=2;" parent="1" vertex="1">
          <mxGeometry x="40" y="-85" width="150" height="250" as="geometry" />
        </mxCell>
        <mxCell id="19g5wpBG-z4xOQPj4vC4-21" value="" style="endArrow=none;html=1;rounded=0;exitX=0.498;exitY=0.138;exitDx=0;exitDy=0;exitPerimeter=0;" parent="1" source="19g5wpBG-z4xOQPj4vC4-19" target="19g5wpBG-z4xOQPj4vC4-10" edge="1">
          <mxGeometry width="50" height="50" relative="1" as="geometry">
            <mxPoint x="685" y="270" as="sourcePoint" />
            <mxPoint x="685" y="235" as="targetPoint" />
          </mxGeometry>
        </mxCell>
        <mxCell id="19g5wpBG-z4xOQPj4vC4-25" style="edgeStyle=orthogonalEdgeStyle;rounded=0;orthogonalLoop=1;jettySize=auto;html=1;entryX=0;entryY=0.5;entryDx=0;entryDy=0;" parent="1" source="ajAWkNfieeJ6ma5MIzeF-12" target="ajAWkNfieeJ6ma5MIzeF-1" edge="1">
          <mxGeometry relative="1" as="geometry" />
        </mxCell>
        <mxCell id="ajAWkNfieeJ6ma5MIzeF-12" value="&lt;font style=&quot;font-size: 18px;&quot;&gt;$$S(z)$$&lt;/font&gt;" style="rounded=0;whiteSpace=wrap;html=1;" parent="1" vertex="1">
          <mxGeometry x="735" y="20" width="80" height="40" as="geometry" />
        </mxCell>
        <mxCell id="ajAWkNfieeJ6ma5MIzeF-18" value="" style="endArrow=classic;html=1;rounded=0;exitX=0.5;exitY=0;exitDx=0;exitDy=0;" parent="1" edge="1">
          <mxGeometry width="50" height="50" relative="1" as="geometry">
            <mxPoint x="390" y="235" as="sourcePoint" />
            <mxPoint x="410" y="-100" as="targetPoint" />
            <Array as="points">
              <mxPoint x="390" y="175" />
              <mxPoint x="370" y="175" />
            </Array>
          </mxGeometry>
        </mxCell>
        <mxCell id="ajAWkNfieeJ6ma5MIzeF-3" value="&lt;font style=&quot;font-size: 18px;&quot;&gt;$$W_{1}(z)$$&lt;/font&gt;" style="rounded=0;whiteSpace=wrap;html=1;" parent="1" vertex="1">
          <mxGeometry x="345" y="-75" width="90" height="40" as="geometry" />
        </mxCell>
        <mxCell id="ajAWkNfieeJ6ma5MIzeF-20" value="&lt;font size=&quot;1&quot; color=&quot;#0000cc&quot;&gt;&lt;i style=&quot;font-size: 14px;&quot;&gt;$$d(n)$$&lt;/i&gt;&lt;/font&gt;" style="text;html=1;strokeColor=none;fillColor=none;align=center;verticalAlign=middle;whiteSpace=wrap;rounded=0;" parent="1" vertex="1">
          <mxGeometry x="820" y="-75" width="60" height="30" as="geometry" />
        </mxCell>
        <mxCell id="ajAWkNfieeJ6ma5MIzeF-21" value="&lt;font size=&quot;1&quot; color=&quot;#cc0000&quot;&gt;&lt;i style=&quot;font-size: 14px;&quot;&gt;$$y(n)$$&lt;/i&gt;&lt;/font&gt;" style="text;html=1;strokeColor=none;fillColor=none;align=center;verticalAlign=middle;whiteSpace=wrap;rounded=0;" parent="1" vertex="1">
          <mxGeometry x="805" y="10" width="60" height="30" as="geometry" />
        </mxCell>
        <mxCell id="ajAWkNfieeJ6ma5MIzeF-22" value="&lt;font size=&quot;1&quot; color=&quot;#009900&quot;&gt;&lt;i style=&quot;font-size: 14px;&quot;&gt;$$e(n)$$&lt;/i&gt;&lt;/font&gt;" style="text;html=1;strokeColor=none;fillColor=none;align=center;verticalAlign=middle;whiteSpace=wrap;rounded=0;" parent="1" vertex="1">
          <mxGeometry x="870" y="10" width="60" height="30" as="geometry" />
        </mxCell>
        <mxCell id="ajAWkNfieeJ6ma5MIzeF-23" value="&lt;font size=&quot;1&quot; color=&quot;#7f00ff&quot;&gt;&lt;i style=&quot;font-size: 14px;&quot;&gt;$$u(n)$$&lt;/i&gt;&lt;/font&gt;" style="text;html=1;strokeColor=none;fillColor=none;align=center;verticalAlign=middle;whiteSpace=wrap;rounded=0;" parent="1" vertex="1">
          <mxGeometry x="520" y="10" width="60" height="30" as="geometry" />
        </mxCell>
        <mxCell id="CBB9v3UhZUv1EWWix4jz-1" value="&lt;font style=&quot;font-size: 18px;&quot;&gt;$$\hat {S}(z)$$&lt;/font&gt;" style="rounded=0;whiteSpace=wrap;html=1;" parent="1" vertex="1">
          <mxGeometry x="220" y="195" width="70" height="55" as="geometry" />
        </mxCell>
        <mxCell id="CBB9v3UhZUv1EWWix4jz-2" value="&lt;font size=&quot;1&quot; color=&quot;#cc6600&quot;&gt;&lt;i style=&quot;font-size: 14px;&quot;&gt;$$\hat{x}_1(n)$$&lt;/i&gt;&lt;/font&gt;" style="text;html=1;strokeColor=none;fillColor=none;align=center;verticalAlign=middle;whiteSpace=wrap;rounded=0;" parent="1" vertex="1">
          <mxGeometry x="285" y="170" width="60" height="30" as="geometry" />
        </mxCell>
        <mxCell id="19g5wpBG-z4xOQPj4vC4-1" value="&lt;font style=&quot;font-size: 18px;&quot;&gt;$$\hat {S}(z)$$&lt;/font&gt;" style="rounded=0;whiteSpace=wrap;html=1;" parent="1" vertex="1">
          <mxGeometry x="690" y="115" width="40" height="70" as="geometry" />
        </mxCell>
        <mxCell id="19g5wpBG-z4xOQPj4vC4-3" value="$$+$$" style="ellipse;whiteSpace=wrap;html=1;aspect=fixed;" parent="1" vertex="1">
          <mxGeometry x="700" y="340" width="20" height="20" as="geometry" />
        </mxCell>
        <mxCell id="19g5wpBG-z4xOQPj4vC4-7" value="" style="endArrow=classic;html=1;rounded=0;entryX=1;entryY=0.5;entryDx=0;entryDy=0;" parent="1" target="19g5wpBG-z4xOQPj4vC4-3" edge="1">
          <mxGeometry width="50" height="50" relative="1" as="geometry">
            <mxPoint x="900" y="40" as="sourcePoint" />
            <mxPoint x="735" y="280" as="targetPoint" />
            <Array as="points">
              <mxPoint x="900" y="350" />
            </Array>
          </mxGeometry>
        </mxCell>
        <mxCell id="19g5wpBG-z4xOQPj4vC4-10" value="" style="verticalLabelPosition=bottom;verticalAlign=top;html=1;shape=mxgraph.basic.arc;startAngle=0.5;endAngle=0;rotation=-180;" parent="1" vertex="1">
          <mxGeometry x="700" y="210" width="20" height="20" as="geometry" />
        </mxCell>
        <mxCell id="19g5wpBG-z4xOQPj4vC4-11" value="" style="endArrow=classic;html=1;rounded=0;entryX=0.5;entryY=0;entryDx=0;entryDy=0;exitX=0.5;exitY=1;exitDx=0;exitDy=0;" parent="1" source="19g5wpBG-z4xOQPj4vC4-19" target="19g5wpBG-z4xOQPj4vC4-3" edge="1">
          <mxGeometry width="50" height="50" relative="1" as="geometry">
            <mxPoint x="485" y="422.88" as="sourcePoint" />
            <mxPoint x="535" y="357.88" as="targetPoint" />
          </mxGeometry>
        </mxCell>
        <mxCell id="19g5wpBG-z4xOQPj4vC4-13" value="" style="endArrow=none;html=1;rounded=0;exitX=0;exitY=0.5;exitDx=0;exitDy=0;exitPerimeter=0;" parent="1" source="19g5wpBG-z4xOQPj4vC4-10" edge="1">
          <mxGeometry width="50" height="50" relative="1" as="geometry">
            <mxPoint x="708.75" y="240" as="sourcePoint" />
            <mxPoint x="900" y="220" as="targetPoint" />
          </mxGeometry>
        </mxCell>
        <mxCell id="19g5wpBG-z4xOQPj4vC4-16" value="" style="triangle;whiteSpace=wrap;html=1;rotation=90;" parent="1" vertex="1">
          <mxGeometry x="696.25" y="265" width="27.5" height="30" as="geometry" />
        </mxCell>
        <mxCell id="19g5wpBG-z4xOQPj4vC4-19" value="$$-1$$" style="text;html=1;strokeColor=none;fillColor=none;align=center;verticalAlign=middle;whiteSpace=wrap;rounded=0;" parent="1" vertex="1">
          <mxGeometry x="700" y="265" width="20" height="19.62" as="geometry" />
        </mxCell>
        <mxCell id="hNRJYCw_6INiO3kUoj2n-1" style="edgeStyle=orthogonalEdgeStyle;rounded=0;orthogonalLoop=1;jettySize=auto;html=1;" edge="1" parent="1" source="ajAWkNfieeJ6ma5MIzeF-1">
          <mxGeometry relative="1" as="geometry">
            <mxPoint x="930" y="40" as="targetPoint" />
          </mxGeometry>
        </mxCell>
        <mxCell id="ajAWkNfieeJ6ma5MIzeF-1" value="$$+$$" style="ellipse;whiteSpace=wrap;html=1;aspect=fixed;" parent="1" vertex="1">
          <mxGeometry x="860" y="30" width="20" height="20" as="geometry" />
        </mxCell>
        <mxCell id="19g5wpBG-z4xOQPj4vC4-26" value="" style="endArrow=classic;html=1;rounded=0;entryX=0.5;entryY=0;entryDx=0;entryDy=0;" parent="1" target="ajAWkNfieeJ6ma5MIzeF-1" edge="1">
          <mxGeometry width="50" height="50" relative="1" as="geometry">
            <mxPoint x="870" y="-140" as="sourcePoint" />
            <mxPoint x="805" y="130" as="targetPoint" />
          </mxGeometry>
        </mxCell>
        <mxCell id="19g5wpBG-z4xOQPj4vC4-27" value="&lt;font size=&quot;1&quot; color=&quot;#cc0000&quot;&gt;&lt;i style=&quot;font-size: 14px;&quot;&gt;$$\hat{y}(n)$$&lt;/i&gt;&lt;/font&gt;" style="text;html=1;strokeColor=none;fillColor=none;align=center;verticalAlign=middle;whiteSpace=wrap;rounded=0;" parent="1" vertex="1">
          <mxGeometry x="660" y="305" width="60" height="30" as="geometry" />
        </mxCell>
        <mxCell id="3sO2YfJtq2BWgRdyIDpK-2" value="&lt;font style=&quot;font-size: 18px;&quot;&gt;$$D(z)$$&lt;/font&gt;" style="rounded=0;whiteSpace=wrap;html=1;" parent="1" vertex="1">
          <mxGeometry x="65" y="95" width="45" height="30" as="geometry" />
        </mxCell>
        <mxCell id="3sO2YfJtq2BWgRdyIDpK-3" value="&lt;font style=&quot;font-size: 18px;&quot;&gt;$$A(z)$$&lt;/font&gt;" style="rounded=0;whiteSpace=wrap;html=1;" parent="1" vertex="1">
          <mxGeometry x="65" y="-45" width="45" height="30" as="geometry" />
        </mxCell>
        <mxCell id="3sO2YfJtq2BWgRdyIDpK-6" value="&lt;font style=&quot;font-size: 18px;&quot;&gt;$$W_{2}(z)$$&lt;/font&gt;" style="rounded=0;whiteSpace=wrap;html=1;" parent="1" vertex="1">
          <mxGeometry x="345" y="-24.5" width="90" height="40" as="geometry" />
        </mxCell>
        <mxCell id="3sO2YfJtq2BWgRdyIDpK-7" value="&lt;div&gt;&lt;font style=&quot;font-size: 18px;&quot;&gt;$$W_{2^K-1}(z)$$&lt;/font&gt;&lt;/div&gt;" style="rounded=0;whiteSpace=wrap;html=1;" parent="1" vertex="1">
          <mxGeometry x="345" y="65" width="90" height="40" as="geometry" />
        </mxCell>
        <mxCell id="3sO2YfJtq2BWgRdyIDpK-10" value="&lt;font style=&quot;font-size: 18px;&quot;&gt;$$W_{2^K}(z)$$&lt;/font&gt;" style="rounded=0;whiteSpace=wrap;html=1;" parent="1" vertex="1">
          <mxGeometry x="345" y="115" width="90" height="40" as="geometry" />
        </mxCell>
        <mxCell id="3sO2YfJtq2BWgRdyIDpK-11" value="&lt;font style=&quot;font-size: 16px;&quot;&gt;$$\dots$$&lt;/font&gt;" style="text;html=1;strokeColor=none;fillColor=none;align=center;verticalAlign=middle;whiteSpace=wrap;rounded=0;" parent="1" vertex="1">
          <mxGeometry x="117.5" y="25" width="60" height="25" as="geometry" />
        </mxCell>
        <mxCell id="3sO2YfJtq2BWgRdyIDpK-42" style="edgeStyle=orthogonalEdgeStyle;rounded=0;orthogonalLoop=1;jettySize=auto;html=1;entryX=0;entryY=0.5;entryDx=0;entryDy=0;exitX=1;exitY=0.5;exitDx=0;exitDy=0;" parent="1" source="3sO2YfJtq2BWgRdyIDpK-22" target="ajAWkNfieeJ6ma5MIzeF-12" edge="1">
          <mxGeometry relative="1" as="geometry">
            <mxPoint x="650" y="50" as="sourcePoint" />
          </mxGeometry>
        </mxCell>
        <mxCell id="3sO2YfJtq2BWgRdyIDpK-22" value="$$+$$" style="ellipse;whiteSpace=wrap;html=1;aspect=fixed;" parent="1" vertex="1">
          <mxGeometry x="505" y="30" width="20" height="20" as="geometry" />
        </mxCell>
        <mxCell id="3sO2YfJtq2BWgRdyIDpK-24" value="" style="endArrow=classic;html=1;rounded=0;exitX=1;exitY=0.5;exitDx=0;exitDy=0;entryX=0.156;entryY=0.109;entryDx=0;entryDy=0;entryPerimeter=0;" parent="1" source="ajAWkNfieeJ6ma5MIzeF-3" target="3sO2YfJtq2BWgRdyIDpK-22" edge="1">
          <mxGeometry width="50" height="50" relative="1" as="geometry">
            <mxPoint x="485" y="-45" as="sourcePoint" />
            <mxPoint x="535" y="-95" as="targetPoint" />
          </mxGeometry>
        </mxCell>
        <mxCell id="3sO2YfJtq2BWgRdyIDpK-25" value="" style="endArrow=classic;html=1;rounded=0;exitX=1;exitY=0.5;exitDx=0;exitDy=0;entryX=0.039;entryY=0.275;entryDx=0;entryDy=0;entryPerimeter=0;" parent="1" source="3sO2YfJtq2BWgRdyIDpK-6" target="3sO2YfJtq2BWgRdyIDpK-22" edge="1">
          <mxGeometry width="50" height="50" relative="1" as="geometry">
            <mxPoint x="545" y="60" as="sourcePoint" />
            <mxPoint x="595" y="10" as="targetPoint" />
          </mxGeometry>
        </mxCell>
        <mxCell id="3sO2YfJtq2BWgRdyIDpK-26" value="" style="endArrow=classic;html=1;rounded=0;exitX=1;exitY=0.5;exitDx=0;exitDy=0;entryX=0.042;entryY=0.757;entryDx=0;entryDy=0;entryPerimeter=0;" parent="1" source="3sO2YfJtq2BWgRdyIDpK-7" target="3sO2YfJtq2BWgRdyIDpK-22" edge="1">
          <mxGeometry width="50" height="50" relative="1" as="geometry">
            <mxPoint x="470" y="140" as="sourcePoint" />
            <mxPoint x="520" y="90" as="targetPoint" />
          </mxGeometry>
        </mxCell>
        <mxCell id="3sO2YfJtq2BWgRdyIDpK-27" value="" style="endArrow=classic;html=1;rounded=0;exitX=1;exitY=0.5;exitDx=0;exitDy=0;entryX=0.159;entryY=0.898;entryDx=0;entryDy=0;entryPerimeter=0;" parent="1" source="3sO2YfJtq2BWgRdyIDpK-10" target="3sO2YfJtq2BWgRdyIDpK-22" edge="1">
          <mxGeometry width="50" height="50" relative="1" as="geometry">
            <mxPoint x="475" y="135" as="sourcePoint" />
            <mxPoint x="525" y="85" as="targetPoint" />
          </mxGeometry>
        </mxCell>
        <mxCell id="3sO2YfJtq2BWgRdyIDpK-35" value="" style="endArrow=classic;html=1;rounded=0;" parent="1" edge="1">
          <mxGeometry width="50" height="50" relative="1" as="geometry">
            <mxPoint x="290" y="200" as="sourcePoint" />
            <mxPoint x="345" y="200" as="targetPoint" />
          </mxGeometry>
        </mxCell>
        <mxCell id="3sO2YfJtq2BWgRdyIDpK-36" value="" style="endArrow=classic;html=1;rounded=0;" parent="1" edge="1">
          <mxGeometry width="50" height="50" relative="1" as="geometry">
            <mxPoint x="290" y="210" as="sourcePoint" />
            <mxPoint x="345" y="210" as="targetPoint" />
          </mxGeometry>
        </mxCell>
        <mxCell id="3sO2YfJtq2BWgRdyIDpK-38" value="" style="endArrow=classic;html=1;rounded=0;" parent="1" edge="1">
          <mxGeometry width="50" height="50" relative="1" as="geometry">
            <mxPoint x="290" y="235" as="sourcePoint" />
            <mxPoint x="345" y="235" as="targetPoint" />
          </mxGeometry>
        </mxCell>
        <mxCell id="3sO2YfJtq2BWgRdyIDpK-39" value="" style="endArrow=classic;html=1;rounded=0;" parent="1" edge="1">
          <mxGeometry width="50" height="50" relative="1" as="geometry">
            <mxPoint x="290" y="245" as="sourcePoint" />
            <mxPoint x="345" y="245" as="targetPoint" />
          </mxGeometry>
        </mxCell>
        <mxCell id="3sO2YfJtq2BWgRdyIDpK-40" value="&lt;font style=&quot;font-size: 16px;&quot;&gt;$$\dots$$&lt;/font&gt;" style="text;html=1;strokeColor=none;fillColor=none;align=center;verticalAlign=middle;whiteSpace=wrap;rounded=0;rotation=0;" parent="1" vertex="1">
          <mxGeometry x="285" y="215" width="60" height="5" as="geometry" />
        </mxCell>
        <mxCell id="ajAWkNfieeJ6ma5MIzeF-5" value="&lt;font style=&quot;font-size: 18px;&quot;&gt;$$LMS$$&lt;/font&gt;" style="rounded=0;whiteSpace=wrap;html=1;" parent="1" vertex="1">
          <mxGeometry x="345" y="195" width="90" height="55" as="geometry" />
        </mxCell>
        <mxCell id="3sO2YfJtq2BWgRdyIDpK-44" value="" style="endArrow=classic;html=1;rounded=0;" parent="1" target="19g5wpBG-z4xOQPj4vC4-1" edge="1">
          <mxGeometry width="50" height="50" relative="1" as="geometry">
            <mxPoint x="710" y="40" as="sourcePoint" />
            <mxPoint x="735" as="targetPoint" />
          </mxGeometry>
        </mxCell>
        <mxCell id="3sO2YfJtq2BWgRdyIDpK-45" value="" style="endArrow=none;html=1;rounded=0;exitX=0.5;exitY=1;exitDx=0;exitDy=0;" parent="1" source="19g5wpBG-z4xOQPj4vC4-1" target="19g5wpBG-z4xOQPj4vC4-10" edge="1">
          <mxGeometry width="50" height="50" relative="1" as="geometry">
            <mxPoint x="740" y="175" as="sourcePoint" />
            <mxPoint x="790" y="125" as="targetPoint" />
          </mxGeometry>
        </mxCell>
        <mxCell id="3NsY_oaufpO6qxjP1VHb-3" value="&lt;font style=&quot;font-size: 16px;&quot;&gt;$$\dots$$&lt;/font&gt;" style="text;html=1;strokeColor=none;fillColor=none;align=center;verticalAlign=middle;whiteSpace=wrap;rounded=0;" parent="1" vertex="1">
          <mxGeometry x="360" y="20" width="60" height="25" as="geometry" />
        </mxCell>
        <mxCell id="3NsY_oaufpO6qxjP1VHb-4" value="&lt;div style=&quot;font-size: 15px;&quot;&gt;&lt;font style=&quot;font-size: 14px;&quot; color=&quot;#0000cc&quot;&gt;$$\hat{d}(n)$$&lt;/font&gt;&lt;/div&gt;" style="text;html=1;strokeColor=none;fillColor=none;align=center;verticalAlign=middle;whiteSpace=wrap;rounded=0;" parent="1" vertex="1">
          <mxGeometry x="-15" y="10" width="60" height="30" as="geometry" />
        </mxCell>
        <mxCell id="8-c3kvB9OXs8t6of_QWn-2" value="&lt;font style=&quot;font-size: 18px;&quot;&gt;$$A(z)$$&lt;/font&gt;" style="rounded=0;whiteSpace=wrap;html=1;" parent="1" vertex="1">
          <mxGeometry x="130" y="-70" width="45" height="30" as="geometry" />
        </mxCell>
        <mxCell id="8-c3kvB9OXs8t6of_QWn-3" value="&lt;font style=&quot;font-size: 18px;&quot;&gt;$$A(z)$$&lt;/font&gt;" style="rounded=0;whiteSpace=wrap;html=1;" parent="1" vertex="1">
          <mxGeometry x="130" y="70" width="45" height="30" as="geometry" />
        </mxCell>
        <mxCell id="8-c3kvB9OXs8t6of_QWn-4" value="&lt;font style=&quot;font-size: 18px;&quot;&gt;$$D(z)$$&lt;/font&gt;" style="rounded=0;whiteSpace=wrap;html=1;" parent="1" vertex="1">
          <mxGeometry x="130" y="-20" width="45" height="30" as="geometry" />
        </mxCell>
        <mxCell id="8-c3kvB9OXs8t6of_QWn-5" value="&lt;font style=&quot;font-size: 18px;&quot;&gt;$$D(z)$$&lt;/font&gt;" style="rounded=0;whiteSpace=wrap;html=1;" parent="1" vertex="1">
          <mxGeometry x="130" y="120" width="45" height="30" as="geometry" />
        </mxCell>
        <mxCell id="8-c3kvB9OXs8t6of_QWn-13" value="" style="endArrow=classic;html=1;rounded=0;" parent="1" edge="1">
          <mxGeometry width="50" height="50" relative="1" as="geometry">
            <mxPoint x="230" y="-55" as="sourcePoint" />
            <mxPoint x="230" y="195" as="targetPoint" />
          </mxGeometry>
        </mxCell>
        <mxCell id="8-c3kvB9OXs8t6of_QWn-14" value="" style="endArrow=classic;html=1;rounded=0;" parent="1" edge="1">
          <mxGeometry width="50" height="50" relative="1" as="geometry">
            <mxPoint x="240" y="-5" as="sourcePoint" />
            <mxPoint x="240" y="195" as="targetPoint" />
          </mxGeometry>
        </mxCell>
        <mxCell id="8-c3kvB9OXs8t6of_QWn-15" value="" style="endArrow=classic;html=1;rounded=0;" parent="1" edge="1">
          <mxGeometry width="50" height="50" relative="1" as="geometry">
            <mxPoint x="265" y="85" as="sourcePoint" />
            <mxPoint x="265" y="195" as="targetPoint" />
          </mxGeometry>
        </mxCell>
        <mxCell id="8-c3kvB9OXs8t6of_QWn-16" value="" style="endArrow=classic;html=1;rounded=0;" parent="1" edge="1">
          <mxGeometry width="50" height="50" relative="1" as="geometry">
            <mxPoint x="275" y="135" as="sourcePoint" />
            <mxPoint x="275" y="195" as="targetPoint" />
          </mxGeometry>
        </mxCell>
        <mxCell id="8-c3kvB9OXs8t6of_QWn-17" value="&lt;div style=&quot;font-size: 15px;&quot;&gt;&lt;font style=&quot;font-size: 14px;&quot; color=&quot;#0000cc&quot;&gt;$$\phi_{1}(n)$$&lt;/font&gt;&lt;/div&gt;" style="text;html=1;strokeColor=none;fillColor=none;align=center;verticalAlign=middle;whiteSpace=wrap;rounded=0;" parent="1" vertex="1">
          <mxGeometry x="280" y="-85" width="60" height="30" as="geometry" />
        </mxCell>
        <mxCell id="8-c3kvB9OXs8t6of_QWn-18" value="&lt;div style=&quot;font-size: 15px;&quot;&gt;&lt;font style=&quot;font-size: 14px;&quot; color=&quot;#0000cc&quot;&gt;$$\phi_{2}(n)$$&lt;/font&gt;&lt;/div&gt;" style="text;html=1;strokeColor=none;fillColor=none;align=center;verticalAlign=middle;whiteSpace=wrap;rounded=0;" parent="1" vertex="1">
          <mxGeometry x="280" y="-34.5" width="60" height="30" as="geometry" />
        </mxCell>
        <mxCell id="8-c3kvB9OXs8t6of_QWn-19" value="&lt;div style=&quot;font-size: 15px;&quot;&gt;&lt;font style=&quot;font-size: 14px;&quot; color=&quot;#0000cc&quot;&gt;$$\phi_{2^K -1}(n)$$&lt;/font&gt;&lt;/div&gt;" style="text;html=1;strokeColor=none;fillColor=none;align=center;verticalAlign=middle;whiteSpace=wrap;rounded=0;" parent="1" vertex="1">
          <mxGeometry x="280" y="55" width="60" height="30" as="geometry" />
        </mxCell>
        <mxCell id="8-c3kvB9OXs8t6of_QWn-20" value="&lt;div style=&quot;font-size: 15px;&quot;&gt;&lt;font style=&quot;font-size: 14px;&quot; color=&quot;#0000cc&quot;&gt;$$\phi_{2^K}(n)$$&lt;/font&gt;&lt;/div&gt;" style="text;html=1;strokeColor=none;fillColor=none;align=center;verticalAlign=middle;whiteSpace=wrap;rounded=0;" parent="1" vertex="1">
          <mxGeometry x="280" y="105" width="60" height="30" as="geometry" />
        </mxCell>
        <mxCell id="8-c3kvB9OXs8t6of_QWn-21" value="" style="rounded=0;whiteSpace=wrap;html=1;fillColor=#F7F7F7;strokeColor=default;dashed=1;dashPattern=1 1;strokeWidth=2;" parent="1" vertex="1">
          <mxGeometry x="510" y="115" width="155" height="215" as="geometry" />
        </mxCell>
        <mxCell id="8-c3kvB9OXs8t6of_QWn-22" value="&lt;font style=&quot;font-size: 18px;&quot;&gt;$$D(z)$$&lt;/font&gt;" style="rounded=0;whiteSpace=wrap;html=1;" parent="1" vertex="1">
          <mxGeometry x="590" y="260" width="45" height="30" as="geometry" />
        </mxCell>
        <mxCell id="8-c3kvB9OXs8t6of_QWn-23" value="&lt;font style=&quot;font-size: 18px;&quot;&gt;$$A(z)$$&lt;/font&gt;" style="rounded=0;whiteSpace=wrap;html=1;" parent="1" vertex="1">
          <mxGeometry x="590" y="155" width="45" height="30" as="geometry" />
        </mxCell>
        <mxCell id="8-c3kvB9OXs8t6of_QWn-24" value="" style="endArrow=none;html=1;rounded=0;strokeWidth=2;strokeColor=#FFFFFF;" parent="1" edge="1">
          <mxGeometry width="50" height="50" relative="1" as="geometry">
            <mxPoint x="640" y="174.5" as="sourcePoint" />
            <mxPoint x="640" y="170.5" as="targetPoint" />
          </mxGeometry>
        </mxCell>
        <mxCell id="8-c3kvB9OXs8t6of_QWn-25" value="&lt;font style=&quot;font-size: 18px;&quot;&gt;$$A(z)$$&lt;/font&gt;" style="rounded=0;whiteSpace=wrap;html=1;" parent="1" vertex="1">
          <mxGeometry x="525" y="130" width="45" height="30" as="geometry" />
        </mxCell>
        <mxCell id="8-c3kvB9OXs8t6of_QWn-26" value="&lt;font style=&quot;font-size: 18px;&quot;&gt;$$A(z)$$&lt;/font&gt;" style="rounded=0;whiteSpace=wrap;html=1;" parent="1" vertex="1">
          <mxGeometry x="525" y="235" width="45" height="30" as="geometry" />
        </mxCell>
        <mxCell id="8-c3kvB9OXs8t6of_QWn-27" value="&lt;font style=&quot;font-size: 18px;&quot;&gt;$$D(z)$$&lt;/font&gt;" style="rounded=0;whiteSpace=wrap;html=1;" parent="1" vertex="1">
          <mxGeometry x="525" y="180" width="45" height="30" as="geometry" />
        </mxCell>
        <mxCell id="8-c3kvB9OXs8t6of_QWn-28" value="&lt;font style=&quot;font-size: 18px;&quot;&gt;$$D(z)$$&lt;/font&gt;" style="rounded=0;whiteSpace=wrap;html=1;" parent="1" vertex="1">
          <mxGeometry x="525" y="285" width="45" height="30" as="geometry" />
        </mxCell>
        <mxCell id="8-c3kvB9OXs8t6of_QWn-29" value="" style="endArrow=classic;html=1;rounded=0;" parent="1" edge="1">
          <mxGeometry width="50" height="50" relative="1" as="geometry">
            <mxPoint x="510" y="145" as="sourcePoint" />
            <mxPoint x="435" y="200" as="targetPoint" />
            <Array as="points">
              <mxPoint x="450" y="145" />
              <mxPoint x="450" y="200" />
            </Array>
          </mxGeometry>
        </mxCell>
        <mxCell id="8-c3kvB9OXs8t6of_QWn-30" value="" style="endArrow=classic;html=1;rounded=0;" parent="1" edge="1">
          <mxGeometry width="50" height="50" relative="1" as="geometry">
            <mxPoint x="510" y="195" as="sourcePoint" />
            <mxPoint x="435" y="210" as="targetPoint" />
            <Array as="points">
              <mxPoint x="460" y="195" />
              <mxPoint x="460" y="210" />
            </Array>
          </mxGeometry>
        </mxCell>
        <mxCell id="8-c3kvB9OXs8t6of_QWn-31" value="" style="endArrow=classic;html=1;rounded=0;" parent="1" edge="1">
          <mxGeometry width="50" height="50" relative="1" as="geometry">
            <mxPoint x="510" y="250" as="sourcePoint" />
            <mxPoint x="435" y="235" as="targetPoint" />
            <Array as="points">
              <mxPoint x="460" y="250" />
              <mxPoint x="460" y="235" />
            </Array>
          </mxGeometry>
        </mxCell>
        <mxCell id="8-c3kvB9OXs8t6of_QWn-32" value="" style="endArrow=classic;html=1;rounded=0;" parent="1" edge="1">
          <mxGeometry width="50" height="50" relative="1" as="geometry">
            <mxPoint x="510" y="300" as="sourcePoint" />
            <mxPoint x="435" y="245" as="targetPoint" />
            <Array as="points">
              <mxPoint x="450" y="300" />
              <mxPoint x="450" y="245" />
            </Array>
          </mxGeometry>
        </mxCell>
        <mxCell id="8-c3kvB9OXs8t6of_QWn-33" value="&lt;font style=&quot;font-size: 16px;&quot;&gt;$$\dots$$&lt;/font&gt;" style="text;html=1;strokeColor=none;fillColor=none;align=center;verticalAlign=middle;whiteSpace=wrap;rounded=0;" parent="1" vertex="1">
          <mxGeometry x="520" y="205" width="60" height="25" as="geometry" />
        </mxCell>
        <mxCell id="8-c3kvB9OXs8t6of_QWn-36" value="" style="endArrow=classic;html=1;rounded=0;entryX=1;entryY=0.5;entryDx=0;entryDy=0;exitX=0.12;exitY=0.5;exitDx=0;exitDy=0;exitPerimeter=0;" parent="1" source="19g5wpBG-z4xOQPj4vC4-10" target="8-c3kvB9OXs8t6of_QWn-23" edge="1">
          <mxGeometry width="50" height="50" relative="1" as="geometry">
            <mxPoint x="600" y="240" as="sourcePoint" />
            <mxPoint x="650" y="190" as="targetPoint" />
            <Array as="points">
              <mxPoint x="650" y="220" />
              <mxPoint x="650" y="170" />
              <mxPoint x="635" y="170" />
            </Array>
          </mxGeometry>
        </mxCell>
        <mxCell id="8-c3kvB9OXs8t6of_QWn-37" value="" style="endArrow=classic;html=1;rounded=0;entryX=1;entryY=0.5;entryDx=0;entryDy=0;" parent="1" target="8-c3kvB9OXs8t6of_QWn-22" edge="1">
          <mxGeometry width="50" height="50" relative="1" as="geometry">
            <mxPoint x="650" y="220" as="sourcePoint" />
            <mxPoint x="695" y="170" as="targetPoint" />
            <Array as="points">
              <mxPoint x="650" y="275" />
            </Array>
          </mxGeometry>
        </mxCell>
        <mxCell id="8-c3kvB9OXs8t6of_QWn-38" value="" style="endArrow=classic;html=1;rounded=0;entryX=1;entryY=0.5;entryDx=0;entryDy=0;" parent="1" target="8-c3kvB9OXs8t6of_QWn-25" edge="1">
          <mxGeometry width="50" height="50" relative="1" as="geometry">
            <mxPoint x="590" y="170" as="sourcePoint" />
            <mxPoint x="575" y="145" as="targetPoint" />
            <Array as="points">
              <mxPoint x="585" y="170" />
              <mxPoint x="585" y="145" />
            </Array>
          </mxGeometry>
        </mxCell>
        <mxCell id="8-c3kvB9OXs8t6of_QWn-39" value="" style="endArrow=classic;html=1;rounded=0;entryX=1;entryY=0.5;entryDx=0;entryDy=0;" parent="1" target="8-c3kvB9OXs8t6of_QWn-27" edge="1">
          <mxGeometry width="50" height="50" relative="1" as="geometry">
            <mxPoint x="585" y="170" as="sourcePoint" />
            <mxPoint x="635" y="120" as="targetPoint" />
            <Array as="points">
              <mxPoint x="585" y="195" />
            </Array>
          </mxGeometry>
        </mxCell>
        <mxCell id="8-c3kvB9OXs8t6of_QWn-40" value="" style="endArrow=classic;html=1;rounded=0;entryX=1;entryY=0.5;entryDx=0;entryDy=0;" parent="1" target="8-c3kvB9OXs8t6of_QWn-26" edge="1">
          <mxGeometry width="50" height="50" relative="1" as="geometry">
            <mxPoint x="590" y="275" as="sourcePoint" />
            <mxPoint x="640" y="225" as="targetPoint" />
            <Array as="points">
              <mxPoint x="585" y="275" />
              <mxPoint x="585" y="250" />
            </Array>
          </mxGeometry>
        </mxCell>
        <mxCell id="8-c3kvB9OXs8t6of_QWn-41" value="" style="endArrow=classic;html=1;rounded=0;entryX=1;entryY=0.5;entryDx=0;entryDy=0;" parent="1" target="8-c3kvB9OXs8t6of_QWn-28" edge="1">
          <mxGeometry width="50" height="50" relative="1" as="geometry">
            <mxPoint x="585" y="275" as="sourcePoint" />
            <mxPoint x="635" y="225" as="targetPoint" />
            <Array as="points">
              <mxPoint x="585" y="300" />
            </Array>
          </mxGeometry>
        </mxCell>
        <mxCell id="8-c3kvB9OXs8t6of_QWn-42" value="" style="endArrow=classic;html=1;rounded=0;entryX=0;entryY=0.5;entryDx=0;entryDy=0;exitX=0;exitY=0.5;exitDx=0;exitDy=0;" parent="1" source="19g5wpBG-z4xOQPj4vC4-3" target="3sO2YfJtq2BWgRdyIDpK-3" edge="1">
          <mxGeometry width="50" height="50" relative="1" as="geometry">
            <mxPoint x="675" y="350" as="sourcePoint" />
            <mxPoint x="20" y="40" as="targetPoint" />
            <Array as="points">
              <mxPoint x="-10" y="350" />
              <mxPoint x="-10" y="40" />
              <mxPoint x="50" y="40" />
              <mxPoint x="50" y="-30" />
            </Array>
          </mxGeometry>
        </mxCell>
        <mxCell id="8-c3kvB9OXs8t6of_QWn-43" value="" style="endArrow=classic;html=1;rounded=0;entryX=0;entryY=0.5;entryDx=0;entryDy=0;" parent="1" target="3sO2YfJtq2BWgRdyIDpK-2" edge="1">
          <mxGeometry width="50" height="50" relative="1" as="geometry">
            <mxPoint x="50" y="40" as="sourcePoint" />
            <mxPoint x="105" y="-10" as="targetPoint" />
            <Array as="points">
              <mxPoint x="50" y="110" />
            </Array>
          </mxGeometry>
        </mxCell>
        <mxCell id="8-c3kvB9OXs8t6of_QWn-44" value="" style="endArrow=classic;html=1;rounded=0;entryX=0;entryY=0.5;entryDx=0;entryDy=0;" parent="1" target="8-c3kvB9OXs8t6of_QWn-2" edge="1">
          <mxGeometry width="50" height="50" relative="1" as="geometry">
            <mxPoint x="110" y="-30" as="sourcePoint" />
            <mxPoint x="160" y="-80" as="targetPoint" />
            <Array as="points">
              <mxPoint x="115" y="-30" />
              <mxPoint x="115" y="-55" />
            </Array>
          </mxGeometry>
        </mxCell>
        <mxCell id="8-c3kvB9OXs8t6of_QWn-45" value="" style="endArrow=classic;html=1;rounded=0;entryX=0;entryY=0.5;entryDx=0;entryDy=0;" parent="1" target="8-c3kvB9OXs8t6of_QWn-4" edge="1">
          <mxGeometry width="50" height="50" relative="1" as="geometry">
            <mxPoint x="115" y="-30" as="sourcePoint" />
            <mxPoint x="165" y="-80" as="targetPoint" />
            <Array as="points">
              <mxPoint x="115" y="-5" />
            </Array>
          </mxGeometry>
        </mxCell>
        <mxCell id="8-c3kvB9OXs8t6of_QWn-46" value="" style="endArrow=classic;html=1;rounded=0;entryX=0;entryY=0.5;entryDx=0;entryDy=0;" parent="1" target="8-c3kvB9OXs8t6of_QWn-3" edge="1">
          <mxGeometry width="50" height="50" relative="1" as="geometry">
            <mxPoint x="110" y="110" as="sourcePoint" />
            <mxPoint x="160" y="60" as="targetPoint" />
            <Array as="points">
              <mxPoint x="115" y="110" />
              <mxPoint x="115" y="85" />
            </Array>
          </mxGeometry>
        </mxCell>
        <mxCell id="8-c3kvB9OXs8t6of_QWn-47" value="" style="endArrow=classic;html=1;rounded=0;entryX=0;entryY=0.5;entryDx=0;entryDy=0;" parent="1" target="8-c3kvB9OXs8t6of_QWn-5" edge="1">
          <mxGeometry width="50" height="50" relative="1" as="geometry">
            <mxPoint x="115" y="110" as="sourcePoint" />
            <mxPoint x="165" y="60" as="targetPoint" />
            <Array as="points">
              <mxPoint x="115" y="135" />
            </Array>
          </mxGeometry>
        </mxCell>
        <mxCell id="8-c3kvB9OXs8t6of_QWn-49" value="" style="endArrow=classic;html=1;rounded=0;entryX=0;entryY=0.5;entryDx=0;entryDy=0;" parent="1" target="ajAWkNfieeJ6ma5MIzeF-3" edge="1">
          <mxGeometry width="50" height="50" relative="1" as="geometry">
            <mxPoint x="190" y="-55" as="sourcePoint" />
            <mxPoint x="340" y="-55" as="targetPoint" />
          </mxGeometry>
        </mxCell>
        <mxCell id="8-c3kvB9OXs8t6of_QWn-53" value="&lt;font size=&quot;1&quot; color=&quot;#009900&quot;&gt;&lt;i style=&quot;font-size: 14px;&quot;&gt;$$e_1(n)$$&lt;/i&gt;&lt;/font&gt;" style="text;html=1;strokeColor=none;fillColor=none;align=center;verticalAlign=middle;whiteSpace=wrap;rounded=0;" parent="1" vertex="1">
          <mxGeometry x="460" y="125" width="60" height="20" as="geometry" />
        </mxCell>
        <mxCell id="8-c3kvB9OXs8t6of_QWn-54" value="&lt;font size=&quot;1&quot; color=&quot;#009900&quot;&gt;&lt;i style=&quot;font-size: 14px;&quot;&gt;$$e_{2^K}(n)$$&lt;/i&gt;&lt;/font&gt;" style="text;html=1;strokeColor=none;fillColor=none;align=center;verticalAlign=middle;whiteSpace=wrap;rounded=0;" parent="1" vertex="1">
          <mxGeometry x="460" y="300" width="55" height="20" as="geometry" />
        </mxCell>
        <mxCell id="8-c3kvB9OXs8t6of_QWn-55" value="&lt;font size=&quot;1&quot; color=&quot;#cc6600&quot;&gt;&lt;i style=&quot;font-size: 14px;&quot;&gt;$$\hat{x}_{2^K}(n)$$&lt;/i&gt;&lt;/font&gt;" style="text;html=1;strokeColor=none;fillColor=none;align=center;verticalAlign=middle;whiteSpace=wrap;rounded=0;" parent="1" vertex="1">
          <mxGeometry x="285" y="244.81" width="60" height="30" as="geometry" />
        </mxCell>
        <mxCell id="8-c3kvB9OXs8t6of_QWn-56" value="&lt;font style=&quot;font-size: 16px;&quot;&gt;$$\dots$$&lt;/font&gt;" style="text;html=1;strokeColor=none;fillColor=none;align=center;verticalAlign=middle;whiteSpace=wrap;rounded=0;" parent="1" vertex="1">
          <mxGeometry x="450" y="205" width="60" height="25" as="geometry" />
        </mxCell>
        <mxCell id="8-c3kvB9OXs8t6of_QWn-57" value="" style="endArrow=classicThin;html=1;rounded=0;endFill=1;" parent="1" edge="1">
          <mxGeometry width="50" height="50" relative="1" as="geometry">
            <mxPoint x="175" y="-55" as="sourcePoint" />
            <mxPoint x="185" y="-55" as="targetPoint" />
          </mxGeometry>
        </mxCell>
        <mxCell id="8-c3kvB9OXs8t6of_QWn-60" value="" style="endArrow=classicThin;html=1;rounded=0;exitX=1;exitY=0.5;exitDx=0;exitDy=0;endFill=1;" parent="1" source="8-c3kvB9OXs8t6of_QWn-4" edge="1">
          <mxGeometry width="50" height="50" relative="1" as="geometry">
            <mxPoint x="175" y="-4.549999999999997" as="sourcePoint" />
            <mxPoint x="185" y="-5" as="targetPoint" />
          </mxGeometry>
        </mxCell>
        <mxCell id="8-c3kvB9OXs8t6of_QWn-61" value="" style="endArrow=classicThin;html=1;rounded=0;endFill=1;" parent="1" edge="1">
          <mxGeometry width="50" height="50" relative="1" as="geometry">
            <mxPoint x="175" y="85" as="sourcePoint" />
            <mxPoint x="185" y="85" as="targetPoint" />
          </mxGeometry>
        </mxCell>
        <mxCell id="8-c3kvB9OXs8t6of_QWn-62" value="" style="endArrow=classicThin;html=1;rounded=0;endFill=1;" parent="1" edge="1">
          <mxGeometry width="50" height="50" relative="1" as="geometry">
            <mxPoint x="175" y="135" as="sourcePoint" />
            <mxPoint x="185" y="135" as="targetPoint" />
          </mxGeometry>
        </mxCell>
        <mxCell id="8-c3kvB9OXs8t6of_QWn-64" value="" style="endArrow=none;html=1;rounded=0;startArrow=classicThin;startFill=1;" parent="1" edge="1">
          <mxGeometry width="50" height="50" relative="1" as="geometry">
            <mxPoint x="515" y="145" as="sourcePoint" />
            <mxPoint x="525" y="145" as="targetPoint" />
          </mxGeometry>
        </mxCell>
        <mxCell id="8-c3kvB9OXs8t6of_QWn-65" value="" style="endArrow=none;html=1;rounded=0;startArrow=classicThin;startFill=1;" parent="1" edge="1">
          <mxGeometry width="50" height="50" relative="1" as="geometry">
            <mxPoint x="515" y="194.91" as="sourcePoint" />
            <mxPoint x="525" y="194.91" as="targetPoint" />
          </mxGeometry>
        </mxCell>
        <mxCell id="8-c3kvB9OXs8t6of_QWn-66" value="" style="endArrow=none;html=1;rounded=0;startArrow=classicThin;startFill=1;" parent="1" edge="1">
          <mxGeometry width="50" height="50" relative="1" as="geometry">
            <mxPoint x="515" y="249.91" as="sourcePoint" />
            <mxPoint x="525" y="249.91" as="targetPoint" />
          </mxGeometry>
        </mxCell>
        <mxCell id="8-c3kvB9OXs8t6of_QWn-67" value="" style="endArrow=none;html=1;rounded=0;startArrow=classicThin;startFill=1;" parent="1" edge="1">
          <mxGeometry width="50" height="50" relative="1" as="geometry">
            <mxPoint x="515" y="299.95" as="sourcePoint" />
            <mxPoint x="525" y="299.95" as="targetPoint" />
          </mxGeometry>
        </mxCell>
        <mxCell id="3sO2YfJtq2BWgRdyIDpK-49" value="" style="endArrow=none;html=1;rounded=0;strokeWidth=2;strokeColor=#FFFFFF;" parent="1" edge="1">
          <mxGeometry width="50" height="50" relative="1" as="geometry">
            <mxPoint x="230" y="-3" as="sourcePoint" />
            <mxPoint x="230" y="-7" as="targetPoint" />
          </mxGeometry>
        </mxCell>
        <mxCell id="VQjX9L68tKWRR2VEjxZV-1" value="Wavelet decomposition" style="text;html=1;strokeColor=none;fillColor=none;align=center;verticalAlign=middle;whiteSpace=wrap;rounded=0;fontSize=16;" parent="1" vertex="1">
          <mxGeometry x="40" y="-130" width="150" height="45" as="geometry" />
        </mxCell>
        <mxCell id="VQjX9L68tKWRR2VEjxZV-2" value="Wavelet decomposition" style="text;html=1;strokeColor=none;fillColor=none;align=center;verticalAlign=middle;whiteSpace=wrap;rounded=0;fontSize=16;" parent="1" vertex="1">
          <mxGeometry x="510" y="70" width="155" height="45" as="geometry" />
        </mxCell>
        <mxCell id="VQjX9L68tKWRR2VEjxZV-3" value="&lt;font size=&quot;1&quot; color=&quot;#009900&quot;&gt;&lt;i style=&quot;font-size: 14px;&quot;&gt;$$e_2(n)$$&lt;/i&gt;&lt;/font&gt;" style="text;html=1;strokeColor=none;fillColor=none;align=center;verticalAlign=middle;whiteSpace=wrap;rounded=0;" parent="1" vertex="1">
          <mxGeometry x="460" y="175" width="60" height="20" as="geometry" />
        </mxCell>
        <mxCell id="VQjX9L68tKWRR2VEjxZV-4" value="&lt;font size=&quot;1&quot; color=&quot;#009900&quot;&gt;&lt;i style=&quot;font-size: 14px;&quot;&gt;$$e_{2^K-1}(n)$$&lt;/i&gt;&lt;/font&gt;" style="text;html=1;strokeColor=none;fillColor=none;align=center;verticalAlign=middle;whiteSpace=wrap;rounded=0;" parent="1" vertex="1">
          <mxGeometry x="450" y="250" width="60" height="20" as="geometry" />
        </mxCell>
        <mxCell id="VQjX9L68tKWRR2VEjxZV-7" value="" style="endArrow=none;html=1;rounded=0;strokeWidth=2;strokeColor=#FFFFFF;" parent="1" edge="1">
          <mxGeometry width="50" height="50" relative="1" as="geometry">
            <mxPoint x="230" y="87" as="sourcePoint" />
            <mxPoint x="230" y="83" as="targetPoint" />
          </mxGeometry>
        </mxCell>
        <mxCell id="VQjX9L68tKWRR2VEjxZV-8" value="" style="endArrow=none;html=1;rounded=0;strokeWidth=2;strokeColor=#FFFFFF;" parent="1" edge="1">
          <mxGeometry width="50" height="50" relative="1" as="geometry">
            <mxPoint x="240" y="87" as="sourcePoint" />
            <mxPoint x="240" y="83" as="targetPoint" />
          </mxGeometry>
        </mxCell>
        <mxCell id="VQjX9L68tKWRR2VEjxZV-9" value="" style="endArrow=none;html=1;rounded=0;strokeWidth=2;strokeColor=#FFFFFF;" parent="1" edge="1">
          <mxGeometry width="50" height="50" relative="1" as="geometry">
            <mxPoint x="230" y="137" as="sourcePoint" />
            <mxPoint x="230" y="133" as="targetPoint" />
          </mxGeometry>
        </mxCell>
        <mxCell id="VQjX9L68tKWRR2VEjxZV-10" value="" style="endArrow=none;html=1;rounded=0;strokeWidth=2;strokeColor=#FFFFFF;" parent="1" edge="1">
          <mxGeometry width="50" height="50" relative="1" as="geometry">
            <mxPoint x="240" y="137" as="sourcePoint" />
            <mxPoint x="240" y="133" as="targetPoint" />
          </mxGeometry>
        </mxCell>
        <mxCell id="VQjX9L68tKWRR2VEjxZV-11" value="" style="endArrow=none;html=1;rounded=0;strokeWidth=2;strokeColor=#FFFFFF;" parent="1" edge="1">
          <mxGeometry width="50" height="50" relative="1" as="geometry">
            <mxPoint x="265" y="137" as="sourcePoint" />
            <mxPoint x="265" y="133" as="targetPoint" />
          </mxGeometry>
        </mxCell>
        <mxCell id="8-c3kvB9OXs8t6of_QWn-50" value="" style="endArrow=classic;html=1;rounded=0;entryX=0;entryY=0.5;entryDx=0;entryDy=0;" parent="1" edge="1">
          <mxGeometry width="50" height="50" relative="1" as="geometry">
            <mxPoint x="190" y="-5.05" as="sourcePoint" />
            <mxPoint x="345" y="-4.95" as="targetPoint" />
          </mxGeometry>
        </mxCell>
        <mxCell id="8-c3kvB9OXs8t6of_QWn-51" value="" style="endArrow=classic;html=1;rounded=0;entryX=0;entryY=0.5;entryDx=0;entryDy=0;" parent="1" target="3sO2YfJtq2BWgRdyIDpK-7" edge="1">
          <mxGeometry width="50" height="50" relative="1" as="geometry">
            <mxPoint x="190" y="85" as="sourcePoint" />
            <mxPoint x="340" y="85" as="targetPoint" />
          </mxGeometry>
        </mxCell>
        <mxCell id="8-c3kvB9OXs8t6of_QWn-52" value="" style="endArrow=classic;html=1;rounded=0;entryX=0;entryY=0.5;entryDx=0;entryDy=0;" parent="1" target="3sO2YfJtq2BWgRdyIDpK-10" edge="1">
          <mxGeometry width="50" height="50" relative="1" as="geometry">
            <mxPoint x="190" y="135" as="sourcePoint" />
            <mxPoint x="340" y="135" as="targetPoint" />
          </mxGeometry>
        </mxCell>
        <mxCell id="VQjX9L68tKWRR2VEjxZV-12" value="&lt;font style=&quot;font-size: 16px;&quot;&gt;$$\dots$$&lt;/font&gt;" style="text;html=1;strokeColor=none;fillColor=none;align=center;verticalAlign=middle;whiteSpace=wrap;rounded=0;rotation=90;" parent="1" vertex="1">
          <mxGeometry x="227.5" y="162.5" width="60" height="10" as="geometry" />
        </mxCell>
        <mxCell id="VQjX9L68tKWRR2VEjxZV-14" value="&lt;font style=&quot;font-size: 16px;&quot;&gt;$$\dots$$&lt;/font&gt;" style="text;html=1;strokeColor=none;fillColor=none;align=center;verticalAlign=middle;whiteSpace=wrap;rounded=0;" parent="1" vertex="1">
          <mxGeometry x="250" y="20" width="60" height="25" as="geometry" />
        </mxCell>
      </root>
    </mxGraphModel>
  </diagram>
</mxfile>
